<mxfile host="app.diagrams.net" modified="2023-06-25T20:27:28.975Z" agent="Mozilla/5.0 (Windows NT 10.0; Win64; x64; rv:109.0) Gecko/20100101 Firefox/114.0" version="21.5.0" etag="-jjW5zKfJiPMTLAqY6lC" type="device">
  <diagram name="Page-1" id="2YBvvXClWsGukQMizWep">
    <mxGraphModel dx="5734" dy="4144" grid="1" gridSize="10" guides="1" tooltips="1" connect="1" arrows="1" fold="1" page="1" pageScale="1" pageWidth="850" pageHeight="1100" math="0" shadow="0">
      <root>
        <mxCell id="0" />
        <mxCell id="1" parent="0" />
        <mxCell id="73" value="heuristic_func" style="html=1;verticalAlign=bottom;endArrow=block;edgeStyle=elbowEdgeStyle;elbow=vertical;curved=0;rounded=0;" parent="1" target="77" edge="1">
          <mxGeometry relative="1" as="geometry">
            <mxPoint x="2616.0744680851067" y="-565" as="sourcePoint" />
            <Array as="points">
              <mxPoint x="2696" y="-565" />
              <mxPoint x="2716" y="-615" />
            </Array>
            <mxPoint x="2801" y="-615" as="targetPoint" />
          </mxGeometry>
        </mxCell>
        <mxCell id="41" value="visit_func" style="html=1;verticalAlign=bottom;endArrow=block;edgeStyle=elbowEdgeStyle;elbow=vertical;curved=0;rounded=0;" parent="1" target="40" edge="1">
          <mxGeometry relative="1" as="geometry">
            <mxPoint x="2615.0744680851067" y="-375.74" as="sourcePoint" />
            <Array as="points">
              <mxPoint x="2695" y="-375.74" />
              <mxPoint x="2715" y="-425.74" />
            </Array>
            <mxPoint x="2800" y="-425.74" as="targetPoint" />
          </mxGeometry>
        </mxCell>
        <mxCell id="tidbYzzNBCGmN1ZPOfvm-26" value="" style="rounded=0;whiteSpace=wrap;html=1;" parent="1" vertex="1">
          <mxGeometry x="180" y="647.5" width="320" height="320" as="geometry" />
        </mxCell>
        <mxCell id="6" style="edgeStyle=orthogonalEdgeStyle;html=1;exitX=0;exitY=0.5;exitDx=0;exitDy=0;entryX=0;entryY=0.5;entryDx=0;entryDy=0;" parent="1" source="tidbYzzNBCGmN1ZPOfvm-26" target="tidbYzzNBCGmN1ZPOfvm-33" edge="1">
          <mxGeometry relative="1" as="geometry">
            <Array as="points">
              <mxPoint x="200" y="807.5" />
              <mxPoint x="200" y="747.5" />
            </Array>
          </mxGeometry>
        </mxCell>
        <mxCell id="7" style="edgeStyle=orthogonalEdgeStyle;html=1;exitX=0;exitY=0.5;exitDx=0;exitDy=0;entryX=0;entryY=0.5;entryDx=0;entryDy=0;" parent="1" source="tidbYzzNBCGmN1ZPOfvm-26" target="tidbYzzNBCGmN1ZPOfvm-51" edge="1">
          <mxGeometry relative="1" as="geometry">
            <Array as="points">
              <mxPoint x="200" y="807.5" />
              <mxPoint x="200" y="787.5" />
            </Array>
          </mxGeometry>
        </mxCell>
        <mxCell id="8" style="edgeStyle=orthogonalEdgeStyle;html=1;exitX=0;exitY=0.5;exitDx=0;exitDy=0;entryX=0;entryY=0.5;entryDx=0;entryDy=0;" parent="1" source="tidbYzzNBCGmN1ZPOfvm-26" target="tidbYzzNBCGmN1ZPOfvm-69" edge="1">
          <mxGeometry relative="1" as="geometry">
            <Array as="points">
              <mxPoint x="200" y="807.5" />
              <mxPoint x="200" y="907.5" />
            </Array>
          </mxGeometry>
        </mxCell>
        <mxCell id="tidbYzzNBCGmN1ZPOfvm-231" value="states allocator (global)" style="rounded=0;whiteSpace=wrap;html=1;verticalAlign=top;spacing=-24;" parent="1" vertex="1">
          <mxGeometry x="1960" y="360" width="470" height="300" as="geometry" />
        </mxCell>
        <mxCell id="3" style="edgeStyle=orthogonalEdgeStyle;html=1;exitX=0;exitY=0.5;exitDx=0;exitDy=0;entryX=0;entryY=0.5;entryDx=0;entryDy=0;" parent="1" source="tidbYzzNBCGmN1ZPOfvm-26" target="tidbYzzNBCGmN1ZPOfvm-116" edge="1">
          <mxGeometry relative="1" as="geometry">
            <Array as="points">
              <mxPoint x="200" y="807.5" />
              <mxPoint x="200" y="707.5" />
            </Array>
          </mxGeometry>
        </mxCell>
        <mxCell id="tidbYzzNBCGmN1ZPOfvm-110" style="edgeStyle=orthogonalEdgeStyle;rounded=0;orthogonalLoop=1;jettySize=auto;html=1;entryX=0;entryY=0.5;entryDx=0;entryDy=0;startArrow=none;" parent="1" source="24" target="tidbYzzNBCGmN1ZPOfvm-26" edge="1">
          <mxGeometry relative="1" as="geometry">
            <Array as="points">
              <mxPoint x="100" y="907.5" />
              <mxPoint x="100" y="807.5" />
            </Array>
          </mxGeometry>
        </mxCell>
        <mxCell id="tidbYzzNBCGmN1ZPOfvm-23" value="Thread #n" style="rounded=0;whiteSpace=wrap;html=1;fillColor=#d5e8d4;strokeColor=#82b366;" parent="1" vertex="1">
          <mxGeometry x="-230" y="887.5" width="80" height="40" as="geometry" />
        </mxCell>
        <mxCell id="tidbYzzNBCGmN1ZPOfvm-109" style="edgeStyle=orthogonalEdgeStyle;rounded=0;orthogonalLoop=1;jettySize=auto;html=1;entryX=0;entryY=0.5;entryDx=0;entryDy=0;startArrow=none;" parent="1" source="22" target="tidbYzzNBCGmN1ZPOfvm-26" edge="1">
          <mxGeometry relative="1" as="geometry">
            <Array as="points">
              <mxPoint x="100" y="787.5" />
              <mxPoint x="100" y="807.5" />
            </Array>
          </mxGeometry>
        </mxCell>
        <mxCell id="tidbYzzNBCGmN1ZPOfvm-22" value="Thread #3" style="rounded=0;whiteSpace=wrap;html=1;fillColor=#e1d5e7;strokeColor=#9673a6;" parent="1" vertex="1">
          <mxGeometry x="-230" y="767.5" width="80" height="40" as="geometry" />
        </mxCell>
        <mxCell id="tidbYzzNBCGmN1ZPOfvm-108" style="edgeStyle=orthogonalEdgeStyle;rounded=0;orthogonalLoop=1;jettySize=auto;html=1;entryX=0;entryY=0.5;entryDx=0;entryDy=0;endArrow=none;endFill=0;startArrow=none;" parent="1" source="20" target="tidbYzzNBCGmN1ZPOfvm-26" edge="1">
          <mxGeometry relative="1" as="geometry">
            <Array as="points">
              <mxPoint x="100" y="747.5" />
              <mxPoint x="100" y="807.5" />
            </Array>
          </mxGeometry>
        </mxCell>
        <mxCell id="tidbYzzNBCGmN1ZPOfvm-21" value="Thread #2" style="rounded=0;whiteSpace=wrap;html=1;fillColor=#f8cecc;strokeColor=#b85450;" parent="1" vertex="1">
          <mxGeometry x="-230" y="727.5" width="80" height="40" as="geometry" />
        </mxCell>
        <mxCell id="aM9ryv3xv72pqoxQDRHE-1" value="a_star worker" style="shape=umlLifeline;perimeter=lifelinePerimeter;whiteSpace=wrap;html=1;container=0;dropTarget=0;collapsible=0;recursiveResize=0;outlineConnect=0;portConstraint=eastwest;newEdgeStyle={&quot;edgeStyle&quot;:&quot;elbowEdgeStyle&quot;,&quot;elbow&quot;:&quot;vertical&quot;,&quot;curved&quot;:0,&quot;rounded&quot;:0};" parent="1" vertex="1">
          <mxGeometry x="2565" y="-741" width="100" height="440" as="geometry" />
        </mxCell>
        <mxCell id="aM9ryv3xv72pqoxQDRHE-2" value="" style="html=1;points=[];perimeter=orthogonalPerimeter;outlineConnect=0;targetShapes=umlLifeline;portConstraint=eastwest;newEdgeStyle={&quot;edgeStyle&quot;:&quot;elbowEdgeStyle&quot;,&quot;elbow&quot;:&quot;vertical&quot;,&quot;curved&quot;:0,&quot;rounded&quot;:0};" parent="aM9ryv3xv72pqoxQDRHE-1" vertex="1">
          <mxGeometry x="45" y="273.26" width="10" height="140" as="geometry" />
        </mxCell>
        <mxCell id="aM9ryv3xv72pqoxQDRHE-3" value="node from &lt;br&gt;min_heap&lt;br&gt;" style="html=1;verticalAlign=bottom;startArrow=oval;endArrow=block;startSize=8;edgeStyle=elbowEdgeStyle;elbow=vertical;curved=0;rounded=0;" parent="aM9ryv3xv72pqoxQDRHE-1" target="aM9ryv3xv72pqoxQDRHE-2" edge="1">
          <mxGeometry relative="1" as="geometry">
            <mxPoint x="-15" y="273.26" as="sourcePoint" />
          </mxGeometry>
        </mxCell>
        <mxCell id="74" value="" style="html=1;points=[];perimeter=orthogonalPerimeter;outlineConnect=0;targetShapes=umlLifeline;portConstraint=eastwest;newEdgeStyle={&quot;edgeStyle&quot;:&quot;elbowEdgeStyle&quot;,&quot;elbow&quot;:&quot;vertical&quot;,&quot;curved&quot;:0,&quot;rounded&quot;:0};" parent="aM9ryv3xv72pqoxQDRHE-1" vertex="1">
          <mxGeometry x="46" y="84" width="10" height="140" as="geometry" />
        </mxCell>
        <mxCell id="81" value="state data" style="html=1;verticalAlign=bottom;startArrow=oval;endArrow=block;startSize=8;edgeStyle=elbowEdgeStyle;elbow=vertical;curved=0;rounded=0;" parent="aM9ryv3xv72pqoxQDRHE-1" edge="1">
          <mxGeometry relative="1" as="geometry">
            <mxPoint x="-15" y="84.25999999999999" as="sourcePoint" />
            <mxPoint x="50" y="84.25999999999999" as="targetPoint" />
          </mxGeometry>
        </mxCell>
        <mxCell id="aM9ryv3xv72pqoxQDRHE-5" value="problem" style="shape=umlLifeline;perimeter=lifelinePerimeter;whiteSpace=wrap;html=1;container=0;dropTarget=0;collapsible=0;recursiveResize=0;outlineConnect=0;portConstraint=eastwest;newEdgeStyle={&quot;edgeStyle&quot;:&quot;elbowEdgeStyle&quot;,&quot;elbow&quot;:&quot;vertical&quot;,&quot;curved&quot;:0,&quot;rounded&quot;:0};" parent="1" vertex="1">
          <mxGeometry x="2745" y="-741" width="100" height="440" as="geometry" />
        </mxCell>
        <mxCell id="aM9ryv3xv72pqoxQDRHE-6" value="" style="html=1;points=[];perimeter=orthogonalPerimeter;outlineConnect=0;targetShapes=umlLifeline;portConstraint=eastwest;newEdgeStyle={&quot;edgeStyle&quot;:&quot;elbowEdgeStyle&quot;,&quot;elbow&quot;:&quot;vertical&quot;,&quot;curved&quot;:0,&quot;rounded&quot;:0};" parent="aM9ryv3xv72pqoxQDRHE-5" vertex="1">
          <mxGeometry x="45" y="283.26" width="10" height="40" as="geometry" />
        </mxCell>
        <mxCell id="40" value="" style="html=1;points=[];perimeter=orthogonalPerimeter;outlineConnect=0;targetShapes=umlLifeline;portConstraint=eastwest;newEdgeStyle={&quot;edgeStyle&quot;:&quot;elbowEdgeStyle&quot;,&quot;elbow&quot;:&quot;vertical&quot;,&quot;curved&quot;:0,&quot;rounded&quot;:0};" parent="aM9ryv3xv72pqoxQDRHE-5" vertex="1">
          <mxGeometry x="45" y="365.26" width="10" height="40" as="geometry" />
        </mxCell>
        <mxCell id="76" value="" style="html=1;points=[];perimeter=orthogonalPerimeter;outlineConnect=0;targetShapes=umlLifeline;portConstraint=eastwest;newEdgeStyle={&quot;edgeStyle&quot;:&quot;elbowEdgeStyle&quot;,&quot;elbow&quot;:&quot;vertical&quot;,&quot;curved&quot;:0,&quot;rounded&quot;:0};" parent="aM9ryv3xv72pqoxQDRHE-5" vertex="1">
          <mxGeometry x="46" y="94" width="10" height="40" as="geometry" />
        </mxCell>
        <mxCell id="77" value="" style="html=1;points=[];perimeter=orthogonalPerimeter;outlineConnect=0;targetShapes=umlLifeline;portConstraint=eastwest;newEdgeStyle={&quot;edgeStyle&quot;:&quot;elbowEdgeStyle&quot;,&quot;elbow&quot;:&quot;vertical&quot;,&quot;curved&quot;:0,&quot;rounded&quot;:0};" parent="aM9ryv3xv72pqoxQDRHE-5" vertex="1">
          <mxGeometry x="46" y="176" width="10" height="40" as="geometry" />
        </mxCell>
        <mxCell id="aM9ryv3xv72pqoxQDRHE-7" value="goal_func" style="html=1;verticalAlign=bottom;endArrow=block;edgeStyle=elbowEdgeStyle;elbow=vertical;curved=0;rounded=0;" parent="1" source="aM9ryv3xv72pqoxQDRHE-2" target="aM9ryv3xv72pqoxQDRHE-6" edge="1">
          <mxGeometry relative="1" as="geometry">
            <mxPoint x="2720" y="-447.74" as="sourcePoint" />
            <Array as="points">
              <mxPoint x="2705" y="-457.74" />
            </Array>
          </mxGeometry>
        </mxCell>
        <mxCell id="aM9ryv3xv72pqoxQDRHE-9" value="true/false" style="html=1;verticalAlign=bottom;endArrow=block;edgeStyle=elbowEdgeStyle;elbow=vertical;curved=0;rounded=0;" parent="1" source="aM9ryv3xv72pqoxQDRHE-6" target="aM9ryv3xv72pqoxQDRHE-2" edge="1">
          <mxGeometry relative="1" as="geometry">
            <mxPoint x="2700" y="-417.74" as="sourcePoint" />
            <Array as="points">
              <mxPoint x="2715" y="-417.74" />
            </Array>
            <mxPoint x="2625" y="-417.74" as="targetPoint" />
          </mxGeometry>
        </mxCell>
        <mxCell id="tidbYzzNBCGmN1ZPOfvm-1" value="state_data" style="rounded=0;whiteSpace=wrap;html=1;fillColor=#ffe6cc;strokeColor=#d79b00;" parent="1" vertex="1">
          <mxGeometry x="380" y="692.5" width="80" height="30" as="geometry" />
        </mxCell>
        <mxCell id="tidbYzzNBCGmN1ZPOfvm-10" value="" style="endArrow=classic;html=1;rounded=0;entryX=0;entryY=0.5;entryDx=0;entryDy=0;exitX=1;exitY=0.5;exitDx=0;exitDy=0;edgeStyle=orthogonalEdgeStyle;" parent="1" source="tidbYzzNBCGmN1ZPOfvm-1" target="tidbYzzNBCGmN1ZPOfvm-20" edge="1">
          <mxGeometry width="50" height="50" relative="1" as="geometry">
            <mxPoint x="700" y="707" as="sourcePoint" />
            <mxPoint x="780" y="707" as="targetPoint" />
            <Array as="points">
              <mxPoint x="550" y="707.5" />
              <mxPoint x="550" y="567.5" />
              <mxPoint x="-290" y="567.5" />
              <mxPoint x="-290" y="707.5" />
            </Array>
          </mxGeometry>
        </mxCell>
        <mxCell id="tidbYzzNBCGmN1ZPOfvm-107" style="edgeStyle=orthogonalEdgeStyle;rounded=0;orthogonalLoop=1;jettySize=auto;html=1;entryX=0;entryY=0.5;entryDx=0;entryDy=0;endArrow=none;endFill=0;startArrow=none;" parent="1" source="16" target="tidbYzzNBCGmN1ZPOfvm-26" edge="1">
          <mxGeometry relative="1" as="geometry">
            <Array as="points">
              <mxPoint x="100" y="707.5" />
              <mxPoint x="100" y="807.5" />
            </Array>
          </mxGeometry>
        </mxCell>
        <mxCell id="tidbYzzNBCGmN1ZPOfvm-20" value="Thread #1" style="rounded=0;whiteSpace=wrap;html=1;fillColor=#ffe6cc;strokeColor=#d79b00;" parent="1" vertex="1">
          <mxGeometry x="-230" y="687.5" width="80" height="40" as="geometry" />
        </mxCell>
        <mxCell id="tidbYzzNBCGmN1ZPOfvm-24" value=".&lt;br&gt;.&lt;br&gt;." style="rounded=0;whiteSpace=wrap;html=1;fontStyle=1" parent="1" vertex="1">
          <mxGeometry x="-230" y="807.5" width="80" height="80" as="geometry" />
        </mxCell>
        <mxCell id="tidbYzzNBCGmN1ZPOfvm-33" value="state_data" style="rounded=0;whiteSpace=wrap;html=1;fillColor=#f8cecc;strokeColor=#b85450;" parent="1" vertex="1">
          <mxGeometry x="220" y="732.5" width="80" height="30" as="geometry" />
        </mxCell>
        <mxCell id="tidbYzzNBCGmN1ZPOfvm-34" value="state_data" style="rounded=0;whiteSpace=wrap;html=1;fillColor=#f8cecc;strokeColor=#b85450;" parent="1" vertex="1">
          <mxGeometry x="380" y="732.5" width="80" height="30" as="geometry" />
        </mxCell>
        <mxCell id="tidbYzzNBCGmN1ZPOfvm-51" value="state_data" style="rounded=0;whiteSpace=wrap;html=1;fillColor=#e1d5e7;strokeColor=#9673a6;" parent="1" vertex="1">
          <mxGeometry x="220" y="772.5" width="80" height="30" as="geometry" />
        </mxCell>
        <mxCell id="tidbYzzNBCGmN1ZPOfvm-52" value="state_data" style="rounded=0;whiteSpace=wrap;html=1;fillColor=#e1d5e7;strokeColor=#9673a6;" parent="1" vertex="1">
          <mxGeometry x="380" y="772.5" width="80" height="30" as="geometry" />
        </mxCell>
        <mxCell id="tidbYzzNBCGmN1ZPOfvm-69" value="state_data" style="rounded=0;whiteSpace=wrap;html=1;fillColor=#d5e8d4;strokeColor=#82b366;" parent="1" vertex="1">
          <mxGeometry x="220" y="892.5" width="80" height="30" as="geometry" />
        </mxCell>
        <mxCell id="tidbYzzNBCGmN1ZPOfvm-70" value="state_data" style="rounded=0;whiteSpace=wrap;html=1;fillColor=#d5e8d4;strokeColor=#82b366;" parent="1" vertex="1">
          <mxGeometry x="380" y="892.5" width="80" height="30" as="geometry" />
        </mxCell>
        <mxCell id="tidbYzzNBCGmN1ZPOfvm-76" value=".&lt;br&gt;&lt;div&gt;.&lt;/div&gt;&lt;div&gt;.&lt;br&gt;&lt;/div&gt;" style="text;html=1;strokeColor=none;fillColor=none;align=center;verticalAlign=middle;whiteSpace=wrap;rounded=0;fontStyle=1" parent="1" vertex="1">
          <mxGeometry x="220" y="807.5" width="80" height="80" as="geometry" />
        </mxCell>
        <mxCell id="tidbYzzNBCGmN1ZPOfvm-111" value="threads communication channel" style="text;html=1;strokeColor=none;fillColor=none;align=center;verticalAlign=middle;whiteSpace=wrap;rounded=0;" parent="1" vertex="1">
          <mxGeometry x="180" y="607.5" width="320" height="40" as="geometry" />
        </mxCell>
        <mxCell id="tidbYzzNBCGmN1ZPOfvm-113" value="FIFO queue /thread" style="text;html=1;strokeColor=none;fillColor=none;align=center;verticalAlign=middle;whiteSpace=wrap;rounded=0;" parent="1" vertex="1">
          <mxGeometry x="220" y="657.5" width="240" height="30" as="geometry" />
        </mxCell>
        <mxCell id="tidbYzzNBCGmN1ZPOfvm-114" value="send state to thread using state data hash" style="text;html=1;strokeColor=none;fillColor=none;align=center;verticalAlign=middle;whiteSpace=wrap;rounded=0;" parent="1" vertex="1">
          <mxGeometry x="110" y="749.5" width="60" height="100" as="geometry" />
        </mxCell>
        <mxCell id="tidbYzzNBCGmN1ZPOfvm-115" value="state_data" style="rounded=0;whiteSpace=wrap;html=1;fillColor=#ffe6cc;strokeColor=#d79b00;" parent="1" vertex="1">
          <mxGeometry x="300" y="692.5" width="80" height="30" as="geometry" />
        </mxCell>
        <mxCell id="tidbYzzNBCGmN1ZPOfvm-116" value="state_data" style="rounded=0;whiteSpace=wrap;html=1;fillColor=#ffe6cc;strokeColor=#d79b00;" parent="1" vertex="1">
          <mxGeometry x="220" y="692.5" width="80" height="30" as="geometry" />
        </mxCell>
        <mxCell id="tidbYzzNBCGmN1ZPOfvm-117" value="state_data" style="rounded=0;whiteSpace=wrap;html=1;fillColor=#f8cecc;strokeColor=#b85450;" parent="1" vertex="1">
          <mxGeometry x="300" y="732.5" width="80" height="30" as="geometry" />
        </mxCell>
        <mxCell id="tidbYzzNBCGmN1ZPOfvm-119" value="state_data" style="rounded=0;whiteSpace=wrap;html=1;fillColor=#e1d5e7;strokeColor=#9673a6;" parent="1" vertex="1">
          <mxGeometry x="300" y="772.5" width="80" height="30" as="geometry" />
        </mxCell>
        <mxCell id="tidbYzzNBCGmN1ZPOfvm-121" value="state_data" style="rounded=0;whiteSpace=wrap;html=1;fillColor=#d5e8d4;strokeColor=#82b366;" parent="1" vertex="1">
          <mxGeometry x="300" y="892.5" width="80" height="30" as="geometry" />
        </mxCell>
        <mxCell id="tidbYzzNBCGmN1ZPOfvm-123" value=".&lt;br&gt;&lt;div&gt;.&lt;/div&gt;&lt;div&gt;.&lt;br&gt;&lt;/div&gt;" style="text;html=1;strokeColor=none;fillColor=none;align=center;verticalAlign=middle;whiteSpace=wrap;rounded=0;fontStyle=1" parent="1" vertex="1">
          <mxGeometry x="300" y="807.5" width="80" height="80" as="geometry" />
        </mxCell>
        <mxCell id="tidbYzzNBCGmN1ZPOfvm-124" value=".&lt;br&gt;&lt;div&gt;.&lt;/div&gt;&lt;div&gt;.&lt;br&gt;&lt;/div&gt;" style="text;html=1;strokeColor=none;fillColor=none;align=center;verticalAlign=middle;whiteSpace=wrap;rounded=0;fontStyle=1" parent="1" vertex="1">
          <mxGeometry x="380" y="807.5" width="80" height="80" as="geometry" />
        </mxCell>
        <mxCell id="tidbYzzNBCGmN1ZPOfvm-130" style="edgeStyle=orthogonalEdgeStyle;curved=1;rounded=0;orthogonalLoop=1;jettySize=auto;html=1;entryX=0.5;entryY=0;entryDx=0;entryDy=0;" parent="1" source="tidbYzzNBCGmN1ZPOfvm-128" target="tidbYzzNBCGmN1ZPOfvm-129" edge="1">
          <mxGeometry relative="1" as="geometry" />
        </mxCell>
        <mxCell id="tidbYzzNBCGmN1ZPOfvm-128" value="recieve state data" style="rounded=0;whiteSpace=wrap;html=1;fontSize=11;strokeWidth=3;" parent="1" vertex="1">
          <mxGeometry x="1120" y="400" width="80" height="40" as="geometry" />
        </mxCell>
        <mxCell id="tidbYzzNBCGmN1ZPOfvm-162" style="edgeStyle=orthogonalEdgeStyle;curved=1;rounded=0;orthogonalLoop=1;jettySize=auto;html=1;exitX=0.5;exitY=1;exitDx=0;exitDy=0;entryX=0.5;entryY=0;entryDx=0;entryDy=0;" parent="1" source="tidbYzzNBCGmN1ZPOfvm-129" target="tidbYzzNBCGmN1ZPOfvm-161" edge="1">
          <mxGeometry relative="1" as="geometry" />
        </mxCell>
        <mxCell id="tidbYzzNBCGmN1ZPOfvm-129" value="check global node hashtable" style="rounded=0;whiteSpace=wrap;html=1;fontSize=11;" parent="1" vertex="1">
          <mxGeometry x="1120" y="480" width="80" height="40" as="geometry" />
        </mxCell>
        <mxCell id="tidbYzzNBCGmN1ZPOfvm-168" value="yes" style="edgeStyle=orthogonalEdgeStyle;rounded=0;orthogonalLoop=1;jettySize=auto;html=1;entryX=0.5;entryY=0;entryDx=0;entryDy=0;fontStyle=1" parent="1" source="tidbYzzNBCGmN1ZPOfvm-161" target="tidbYzzNBCGmN1ZPOfvm-167" edge="1">
          <mxGeometry x="-0.4286" relative="1" as="geometry">
            <mxPoint as="offset" />
          </mxGeometry>
        </mxCell>
        <mxCell id="tidbYzzNBCGmN1ZPOfvm-171" value="no" style="edgeStyle=orthogonalEdgeStyle;rounded=0;orthogonalLoop=1;jettySize=auto;html=1;entryX=0.5;entryY=0;entryDx=0;entryDy=0;fontStyle=1" parent="1" source="tidbYzzNBCGmN1ZPOfvm-161" target="34" edge="1">
          <mxGeometry x="-0.555" relative="1" as="geometry">
            <mxPoint as="offset" />
          </mxGeometry>
        </mxCell>
        <mxCell id="tidbYzzNBCGmN1ZPOfvm-161" value="node exists &lt;br&gt;for state?" style="rhombus;whiteSpace=wrap;html=1;" parent="1" vertex="1">
          <mxGeometry x="1100" y="560" width="120" height="120" as="geometry" />
        </mxCell>
        <mxCell id="tidbYzzNBCGmN1ZPOfvm-175" value="yes" style="edgeStyle=orthogonalEdgeStyle;rounded=0;orthogonalLoop=1;jettySize=auto;html=1;entryX=0.5;entryY=0;entryDx=0;entryDy=0;fontStyle=1" parent="1" source="tidbYzzNBCGmN1ZPOfvm-167" target="tidbYzzNBCGmN1ZPOfvm-174" edge="1">
          <mxGeometry x="-0.3744" relative="1" as="geometry">
            <mxPoint as="offset" />
          </mxGeometry>
        </mxCell>
        <mxCell id="tidbYzzNBCGmN1ZPOfvm-177" value="no" style="edgeStyle=orthogonalEdgeStyle;rounded=0;orthogonalLoop=1;jettySize=auto;html=1;entryX=0.5;entryY=0;entryDx=0;entryDy=0;fontStyle=1" parent="1" source="tidbYzzNBCGmN1ZPOfvm-167" target="tidbYzzNBCGmN1ZPOfvm-176" edge="1">
          <mxGeometry x="-0.5551" relative="1" as="geometry">
            <mxPoint as="offset" />
          </mxGeometry>
        </mxCell>
        <mxCell id="tidbYzzNBCGmN1ZPOfvm-167" value="better attempted cost?" style="rhombus;whiteSpace=wrap;html=1;" parent="1" vertex="1">
          <mxGeometry x="960" y="680" width="120" height="120" as="geometry" />
        </mxCell>
        <mxCell id="tidbYzzNBCGmN1ZPOfvm-170" value="put in local&lt;br&gt;min-heap" style="rounded=0;whiteSpace=wrap;html=1;fontSize=11;strokeWidth=3;" parent="1" vertex="1">
          <mxGeometry x="1240" y="917.5" width="120" height="40" as="geometry" />
        </mxCell>
        <mxCell id="tidbYzzNBCGmN1ZPOfvm-180" value="yes" style="edgeStyle=orthogonalEdgeStyle;rounded=0;orthogonalLoop=1;jettySize=auto;html=1;entryX=0.5;entryY=0;entryDx=0;entryDy=0;fontStyle=1" parent="1" source="tidbYzzNBCGmN1ZPOfvm-174" target="tidbYzzNBCGmN1ZPOfvm-179" edge="1">
          <mxGeometry x="-0.375" relative="1" as="geometry">
            <mxPoint as="offset" />
          </mxGeometry>
        </mxCell>
        <mxCell id="tidbYzzNBCGmN1ZPOfvm-182" value="no" style="edgeStyle=orthogonalEdgeStyle;rounded=0;orthogonalLoop=1;jettySize=auto;html=1;entryX=0.5;entryY=0;entryDx=0;entryDy=0;fontStyle=1" parent="1" source="tidbYzzNBCGmN1ZPOfvm-174" target="tidbYzzNBCGmN1ZPOfvm-181" edge="1">
          <mxGeometry x="-0.3748" relative="1" as="geometry">
            <mxPoint as="offset" />
          </mxGeometry>
        </mxCell>
        <mxCell id="tidbYzzNBCGmN1ZPOfvm-174" value="still in local &lt;br&gt;min_heap?" style="rhombus;whiteSpace=wrap;html=1;" parent="1" vertex="1">
          <mxGeometry x="800" y="800" width="120" height="120" as="geometry" />
        </mxCell>
        <mxCell id="tidbYzzNBCGmN1ZPOfvm-176" value="ignore" style="rounded=0;whiteSpace=wrap;html=1;fontSize=11;strokeWidth=3;" parent="1" vertex="1">
          <mxGeometry x="1120" y="920" width="80" height="40" as="geometry" />
        </mxCell>
        <mxCell id="tidbYzzNBCGmN1ZPOfvm-179" value="update cost" style="rounded=0;whiteSpace=wrap;html=1;fontSize=11;strokeWidth=3;" parent="1" vertex="1">
          <mxGeometry x="960" y="920" width="120" height="40" as="geometry" />
        </mxCell>
        <mxCell id="tidbYzzNBCGmN1ZPOfvm-181" value="insert again with new cost" style="rounded=0;whiteSpace=wrap;html=1;fontSize=11;strokeWidth=3;" parent="1" vertex="1">
          <mxGeometry x="640" y="920" width="120" height="40" as="geometry" />
        </mxCell>
        <mxCell id="tidbYzzNBCGmN1ZPOfvm-185" style="rounded=0;orthogonalLoop=1;jettySize=auto;html=1;entryX=0.5;entryY=0;entryDx=0;entryDy=0;" parent="1" edge="1">
          <mxGeometry relative="1" as="geometry">
            <mxPoint x="1159.81" y="360" as="sourcePoint" />
            <mxPoint x="1159.81" y="400" as="targetPoint" />
          </mxGeometry>
        </mxCell>
        <mxCell id="tidbYzzNBCGmN1ZPOfvm-195" value="states hashtable (global)" style="rounded=0;whiteSpace=wrap;html=1;verticalAlign=top;" parent="1" vertex="1">
          <mxGeometry x="1980" y="380" width="220" height="260" as="geometry" />
        </mxCell>
        <mxCell id="tidbYzzNBCGmN1ZPOfvm-196" value="0" style="rounded=0;whiteSpace=wrap;html=1;" parent="1" vertex="1">
          <mxGeometry x="2000" y="420" width="40" height="40" as="geometry" />
        </mxCell>
        <mxCell id="tidbYzzNBCGmN1ZPOfvm-197" value="1" style="rounded=0;whiteSpace=wrap;html=1;" parent="1" vertex="1">
          <mxGeometry x="2000" y="470" width="40" height="40" as="geometry" />
        </mxCell>
        <mxCell id="tidbYzzNBCGmN1ZPOfvm-199" value="nth idx" style="rounded=0;whiteSpace=wrap;html=1;" parent="1" vertex="1">
          <mxGeometry x="2000" y="580" width="40" height="40" as="geometry" />
        </mxCell>
        <mxCell id="tidbYzzNBCGmN1ZPOfvm-200" value="pointer to state_data" style="rounded=0;whiteSpace=wrap;html=1;" parent="1" vertex="1">
          <mxGeometry x="2050" y="420" width="70" height="40" as="geometry" />
        </mxCell>
        <mxCell id="tidbYzzNBCGmN1ZPOfvm-201" value="pointer to state_data" style="rounded=0;whiteSpace=wrap;html=1;" parent="1" vertex="1">
          <mxGeometry x="2050" y="470" width="70" height="40" as="geometry" />
        </mxCell>
        <mxCell id="tidbYzzNBCGmN1ZPOfvm-203" value="pointer to state_data" style="rounded=0;whiteSpace=wrap;html=1;" parent="1" vertex="1">
          <mxGeometry x="2050" y="580" width="70" height="40" as="geometry" />
        </mxCell>
        <mxCell id="tidbYzzNBCGmN1ZPOfvm-204" value="&lt;b&gt;.&lt;br&gt;&lt;/b&gt;&lt;div&gt;&lt;b&gt;.&lt;/b&gt;&lt;/div&gt;&lt;div&gt;&lt;b&gt;.&lt;br&gt;&lt;/b&gt;&lt;/div&gt;" style="text;html=1;strokeColor=none;fillColor=none;align=center;verticalAlign=middle;whiteSpace=wrap;rounded=0;" parent="1" vertex="1">
          <mxGeometry x="2000" y="520" width="40" height="60" as="geometry" />
        </mxCell>
        <mxCell id="tidbYzzNBCGmN1ZPOfvm-205" value="&lt;b&gt;.&lt;br&gt;&lt;/b&gt;&lt;div&gt;&lt;b&gt;.&lt;/b&gt;&lt;/div&gt;&lt;div&gt;&lt;b&gt;.&lt;br&gt;&lt;/b&gt;&lt;/div&gt;" style="text;html=1;strokeColor=none;fillColor=none;align=center;verticalAlign=middle;whiteSpace=wrap;rounded=0;" parent="1" vertex="1">
          <mxGeometry x="2050" y="520" width="70" height="60" as="geometry" />
        </mxCell>
        <mxCell id="tidbYzzNBCGmN1ZPOfvm-206" value=". . . . . . . " style="text;html=1;strokeColor=none;fillColor=none;align=center;verticalAlign=middle;whiteSpace=wrap;rounded=0;fontStyle=1" parent="1" vertex="1">
          <mxGeometry x="2120" y="420" width="70" height="40" as="geometry" />
        </mxCell>
        <mxCell id="tidbYzzNBCGmN1ZPOfvm-207" value="&lt;b&gt;. . . . . . . &lt;/b&gt;" style="text;html=1;strokeColor=none;fillColor=none;align=center;verticalAlign=middle;whiteSpace=wrap;rounded=0;" parent="1" vertex="1">
          <mxGeometry x="2120" y="470" width="70" height="40" as="geometry" />
        </mxCell>
        <mxCell id="tidbYzzNBCGmN1ZPOfvm-209" value="&lt;b&gt;. . . . . . . &lt;/b&gt;" style="text;html=1;strokeColor=none;fillColor=none;align=center;verticalAlign=middle;whiteSpace=wrap;rounded=0;" parent="1" vertex="1">
          <mxGeometry x="2120" y="580" width="70" height="40" as="geometry" />
        </mxCell>
        <mxCell id="tidbYzzNBCGmN1ZPOfvm-216" value="memory allocator" style="rounded=0;whiteSpace=wrap;html=1;verticalAlign=top;" parent="1" vertex="1">
          <mxGeometry x="2220" y="380" width="190" height="260" as="geometry" />
        </mxCell>
        <mxCell id="tidbYzzNBCGmN1ZPOfvm-221" value="state_data" style="rounded=0;whiteSpace=wrap;html=1;" parent="1" vertex="1">
          <mxGeometry x="2240" y="420" width="70" height="40" as="geometry" />
        </mxCell>
        <mxCell id="tidbYzzNBCGmN1ZPOfvm-222" value="state_data" style="rounded=0;whiteSpace=wrap;html=1;" parent="1" vertex="1">
          <mxGeometry x="2320" y="420" width="70" height="40" as="geometry" />
        </mxCell>
        <mxCell id="tidbYzzNBCGmN1ZPOfvm-224" value="state_data" style="rounded=0;whiteSpace=wrap;html=1;" parent="1" vertex="1">
          <mxGeometry x="2240" y="580" width="70" height="40" as="geometry" />
        </mxCell>
        <mxCell id="tidbYzzNBCGmN1ZPOfvm-225" value="&lt;b&gt;.&lt;br&gt;&lt;/b&gt;&lt;div&gt;&lt;b&gt;.&lt;/b&gt;&lt;/div&gt;&lt;div&gt;&lt;b&gt;.&lt;br&gt;&lt;/b&gt;&lt;/div&gt;" style="text;html=1;strokeColor=none;fillColor=none;align=center;verticalAlign=middle;whiteSpace=wrap;rounded=0;" parent="1" vertex="1">
          <mxGeometry x="2240" y="520" width="40" height="60" as="geometry" />
        </mxCell>
        <mxCell id="tidbYzzNBCGmN1ZPOfvm-226" value="&lt;b&gt;.&lt;br&gt;&lt;/b&gt;&lt;div&gt;&lt;b&gt;.&lt;/b&gt;&lt;/div&gt;&lt;div&gt;&lt;b&gt;.&lt;br&gt;&lt;/b&gt;&lt;/div&gt;" style="text;html=1;strokeColor=none;fillColor=none;align=center;verticalAlign=middle;whiteSpace=wrap;rounded=0;rotation=-45;" parent="1" vertex="1">
          <mxGeometry x="2300" y="510" width="70" height="60" as="geometry" />
        </mxCell>
        <mxCell id="tidbYzzNBCGmN1ZPOfvm-229" value="&lt;b&gt;. . . . . . . &lt;/b&gt;" style="text;html=1;strokeColor=none;fillColor=none;align=center;verticalAlign=middle;whiteSpace=wrap;rounded=0;" parent="1" vertex="1">
          <mxGeometry x="2320" y="470" width="70" height="40" as="geometry" />
        </mxCell>
        <mxCell id="tidbYzzNBCGmN1ZPOfvm-232" value="state_data" style="rounded=0;whiteSpace=wrap;html=1;" parent="1" vertex="1">
          <mxGeometry x="2240" y="470" width="70" height="40" as="geometry" />
        </mxCell>
        <mxCell id="tidbYzzNBCGmN1ZPOfvm-233" value="state_data" style="rounded=0;whiteSpace=wrap;html=1;" parent="1" vertex="1">
          <mxGeometry x="2320" y="580" width="70" height="40" as="geometry" />
        </mxCell>
        <mxCell id="tidbYzzNBCGmN1ZPOfvm-236" value="Thread #1" style="rounded=0;whiteSpace=wrap;html=1;" parent="1" vertex="1">
          <mxGeometry x="1995" y="800" width="80" height="40" as="geometry" />
        </mxCell>
        <mxCell id="tidbYzzNBCGmN1ZPOfvm-237" value="Thread #2" style="rounded=0;whiteSpace=wrap;html=1;" parent="1" vertex="1">
          <mxGeometry x="2075" y="800" width="80" height="40" as="geometry" />
        </mxCell>
        <mxCell id="tidbYzzNBCGmN1ZPOfvm-239" value=". . ." style="rounded=0;whiteSpace=wrap;html=1;fontStyle=1" parent="1" vertex="1">
          <mxGeometry x="2235" y="800" width="80" height="40" as="geometry" />
        </mxCell>
        <mxCell id="tidbYzzNBCGmN1ZPOfvm-240" value="Thread #n" style="rounded=0;whiteSpace=wrap;html=1;" parent="1" vertex="1">
          <mxGeometry x="2315" y="800" width="80" height="40" as="geometry" />
        </mxCell>
        <mxCell id="tidbYzzNBCGmN1ZPOfvm-241" value="state_allocator_new" style="text;html=1;strokeColor=none;fillColor=none;align=center;verticalAlign=middle;whiteSpace=wrap;rounded=0;" parent="1" vertex="1">
          <mxGeometry x="2220" y="857.5" width="140" height="40" as="geometry" />
        </mxCell>
        <mxCell id="tidbYzzNBCGmN1ZPOfvm-242" value="" style="rounded=0;orthogonalLoop=1;jettySize=auto;html=1;entryX=0.5;entryY=1;entryDx=0;entryDy=0;strokeColor=default;startArrow=classic;startFill=1;shape=flexArrow;exitX=0.5;exitY=0;exitDx=0;exitDy=0;" parent="1" source="bHXt7-z5qljUw-2HrjX0-99" target="tidbYzzNBCGmN1ZPOfvm-238" edge="1">
          <mxGeometry relative="1" as="geometry">
            <mxPoint x="2210" y="657.5" as="sourcePoint" />
            <mxPoint x="2010" y="827.5" as="targetPoint" />
          </mxGeometry>
        </mxCell>
        <mxCell id="tidbYzzNBCGmN1ZPOfvm-238" value="Thread #3" style="rounded=0;whiteSpace=wrap;html=1;" parent="1" vertex="1">
          <mxGeometry x="2155" y="800" width="80" height="40" as="geometry" />
        </mxCell>
        <mxCell id="tidbYzzNBCGmN1ZPOfvm-244" value="nodes allocator (global)" style="rounded=0;whiteSpace=wrap;html=1;verticalAlign=top;spacing=-24;" parent="1" vertex="1">
          <mxGeometry x="1440" y="360" width="470" height="300" as="geometry" />
        </mxCell>
        <mxCell id="tidbYzzNBCGmN1ZPOfvm-245" value="node hashtable (global)" style="rounded=0;whiteSpace=wrap;html=1;verticalAlign=top;" parent="1" vertex="1">
          <mxGeometry x="1460" y="380" width="220" height="260" as="geometry" />
        </mxCell>
        <mxCell id="tidbYzzNBCGmN1ZPOfvm-246" value="0" style="rounded=0;whiteSpace=wrap;html=1;" parent="1" vertex="1">
          <mxGeometry x="1480" y="420" width="40" height="40" as="geometry" />
        </mxCell>
        <mxCell id="tidbYzzNBCGmN1ZPOfvm-247" value="1" style="rounded=0;whiteSpace=wrap;html=1;" parent="1" vertex="1">
          <mxGeometry x="1480" y="470" width="40" height="40" as="geometry" />
        </mxCell>
        <mxCell id="tidbYzzNBCGmN1ZPOfvm-248" value="nth idx" style="rounded=0;whiteSpace=wrap;html=1;" parent="1" vertex="1">
          <mxGeometry x="1480" y="580" width="40" height="40" as="geometry" />
        </mxCell>
        <mxCell id="tidbYzzNBCGmN1ZPOfvm-249" value="pointer to node_data" style="rounded=0;whiteSpace=wrap;html=1;" parent="1" vertex="1">
          <mxGeometry x="1530" y="420" width="70" height="40" as="geometry" />
        </mxCell>
        <mxCell id="tidbYzzNBCGmN1ZPOfvm-250" value="pointer to node_data" style="rounded=0;whiteSpace=wrap;html=1;" parent="1" vertex="1">
          <mxGeometry x="1530" y="470" width="70" height="40" as="geometry" />
        </mxCell>
        <mxCell id="tidbYzzNBCGmN1ZPOfvm-251" value="pointer to node_data" style="rounded=0;whiteSpace=wrap;html=1;" parent="1" vertex="1">
          <mxGeometry x="1530" y="580" width="70" height="40" as="geometry" />
        </mxCell>
        <mxCell id="tidbYzzNBCGmN1ZPOfvm-252" value="&lt;b&gt;.&lt;br&gt;&lt;/b&gt;&lt;div&gt;&lt;b&gt;.&lt;/b&gt;&lt;/div&gt;&lt;div&gt;&lt;b&gt;.&lt;br&gt;&lt;/b&gt;&lt;/div&gt;" style="text;html=1;strokeColor=none;fillColor=none;align=center;verticalAlign=middle;whiteSpace=wrap;rounded=0;" parent="1" vertex="1">
          <mxGeometry x="1480" y="520" width="40" height="60" as="geometry" />
        </mxCell>
        <mxCell id="tidbYzzNBCGmN1ZPOfvm-253" value="&lt;b&gt;.&lt;br&gt;&lt;/b&gt;&lt;div&gt;&lt;b&gt;.&lt;/b&gt;&lt;/div&gt;&lt;div&gt;&lt;b&gt;.&lt;br&gt;&lt;/b&gt;&lt;/div&gt;" style="text;html=1;strokeColor=none;fillColor=none;align=center;verticalAlign=middle;whiteSpace=wrap;rounded=0;" parent="1" vertex="1">
          <mxGeometry x="1530" y="520" width="70" height="60" as="geometry" />
        </mxCell>
        <mxCell id="tidbYzzNBCGmN1ZPOfvm-254" value=". . . . . . . " style="text;html=1;strokeColor=none;fillColor=none;align=center;verticalAlign=middle;whiteSpace=wrap;rounded=0;fontStyle=1" parent="1" vertex="1">
          <mxGeometry x="1600" y="420" width="70" height="40" as="geometry" />
        </mxCell>
        <mxCell id="tidbYzzNBCGmN1ZPOfvm-255" value="&lt;b&gt;. . . . . . . &lt;/b&gt;" style="text;html=1;strokeColor=none;fillColor=none;align=center;verticalAlign=middle;whiteSpace=wrap;rounded=0;" parent="1" vertex="1">
          <mxGeometry x="1600" y="470" width="70" height="40" as="geometry" />
        </mxCell>
        <mxCell id="tidbYzzNBCGmN1ZPOfvm-256" value="&lt;b&gt;. . . . . . . &lt;/b&gt;" style="text;html=1;strokeColor=none;fillColor=none;align=center;verticalAlign=middle;whiteSpace=wrap;rounded=0;" parent="1" vertex="1">
          <mxGeometry x="1600" y="580" width="70" height="40" as="geometry" />
        </mxCell>
        <mxCell id="tidbYzzNBCGmN1ZPOfvm-257" value="memory allocator" style="rounded=0;whiteSpace=wrap;html=1;verticalAlign=top;" parent="1" vertex="1">
          <mxGeometry x="1700" y="380" width="190" height="260" as="geometry" />
        </mxCell>
        <mxCell id="tidbYzzNBCGmN1ZPOfvm-258" value="node_data" style="rounded=0;whiteSpace=wrap;html=1;" parent="1" vertex="1">
          <mxGeometry x="1720" y="420" width="70" height="40" as="geometry" />
        </mxCell>
        <mxCell id="tidbYzzNBCGmN1ZPOfvm-259" value="node_data" style="rounded=0;whiteSpace=wrap;html=1;" parent="1" vertex="1">
          <mxGeometry x="1800" y="420" width="70" height="40" as="geometry" />
        </mxCell>
        <mxCell id="tidbYzzNBCGmN1ZPOfvm-260" value="node_data" style="rounded=0;whiteSpace=wrap;html=1;" parent="1" vertex="1">
          <mxGeometry x="1720" y="580" width="70" height="40" as="geometry" />
        </mxCell>
        <mxCell id="tidbYzzNBCGmN1ZPOfvm-261" value="&lt;b&gt;.&lt;br&gt;&lt;/b&gt;&lt;div&gt;&lt;b&gt;.&lt;/b&gt;&lt;/div&gt;&lt;div&gt;&lt;b&gt;.&lt;br&gt;&lt;/b&gt;&lt;/div&gt;" style="text;html=1;strokeColor=none;fillColor=none;align=center;verticalAlign=middle;whiteSpace=wrap;rounded=0;" parent="1" vertex="1">
          <mxGeometry x="1720" y="520" width="40" height="60" as="geometry" />
        </mxCell>
        <mxCell id="tidbYzzNBCGmN1ZPOfvm-262" value="&lt;b&gt;.&lt;br&gt;&lt;/b&gt;&lt;div&gt;&lt;b&gt;.&lt;/b&gt;&lt;/div&gt;&lt;div&gt;&lt;b&gt;.&lt;br&gt;&lt;/b&gt;&lt;/div&gt;" style="text;html=1;strokeColor=none;fillColor=none;align=center;verticalAlign=middle;whiteSpace=wrap;rounded=0;rotation=-45;" parent="1" vertex="1">
          <mxGeometry x="1780" y="510" width="70" height="60" as="geometry" />
        </mxCell>
        <mxCell id="tidbYzzNBCGmN1ZPOfvm-263" value="&lt;b&gt;. . . . . . . &lt;/b&gt;" style="text;html=1;strokeColor=none;fillColor=none;align=center;verticalAlign=middle;whiteSpace=wrap;rounded=0;" parent="1" vertex="1">
          <mxGeometry x="1800" y="470" width="70" height="40" as="geometry" />
        </mxCell>
        <mxCell id="tidbYzzNBCGmN1ZPOfvm-264" value="node_data" style="rounded=0;whiteSpace=wrap;html=1;" parent="1" vertex="1">
          <mxGeometry x="1720" y="470" width="70" height="40" as="geometry" />
        </mxCell>
        <mxCell id="tidbYzzNBCGmN1ZPOfvm-265" value="node_data" style="rounded=0;whiteSpace=wrap;html=1;" parent="1" vertex="1">
          <mxGeometry x="1800" y="580" width="70" height="40" as="geometry" />
        </mxCell>
        <mxCell id="tidbYzzNBCGmN1ZPOfvm-266" value="Thread #1" style="rounded=0;whiteSpace=wrap;html=1;" parent="1" vertex="1">
          <mxGeometry x="1475" y="800" width="80" height="40" as="geometry" />
        </mxCell>
        <mxCell id="tidbYzzNBCGmN1ZPOfvm-267" value="Thread #2" style="rounded=0;whiteSpace=wrap;html=1;" parent="1" vertex="1">
          <mxGeometry x="1555" y="800" width="80" height="40" as="geometry" />
        </mxCell>
        <mxCell id="tidbYzzNBCGmN1ZPOfvm-268" value=". . ." style="rounded=0;whiteSpace=wrap;html=1;fontStyle=1" parent="1" vertex="1">
          <mxGeometry x="1715" y="800" width="80" height="40" as="geometry" />
        </mxCell>
        <mxCell id="tidbYzzNBCGmN1ZPOfvm-269" value="Thread #n" style="rounded=0;whiteSpace=wrap;html=1;" parent="1" vertex="1">
          <mxGeometry x="1795" y="800" width="80" height="40" as="geometry" />
        </mxCell>
        <mxCell id="tidbYzzNBCGmN1ZPOfvm-270" value="node_allocator_new / node_allocator_get" style="text;html=1;strokeColor=none;fillColor=none;align=center;verticalAlign=middle;whiteSpace=wrap;rounded=0;" parent="1" vertex="1">
          <mxGeometry x="1710" y="857.5" width="140" height="40" as="geometry" />
        </mxCell>
        <mxCell id="tidbYzzNBCGmN1ZPOfvm-271" value="" style="rounded=0;orthogonalLoop=1;jettySize=auto;html=1;entryX=0.5;entryY=1;entryDx=0;entryDy=0;strokeColor=default;startArrow=classic;startFill=1;shape=flexArrow;exitX=0.5;exitY=0;exitDx=0;exitDy=0;" parent="1" source="bHXt7-z5qljUw-2HrjX0-128" target="tidbYzzNBCGmN1ZPOfvm-272" edge="1">
          <mxGeometry relative="1" as="geometry">
            <mxPoint x="1690" y="657.5" as="sourcePoint" />
            <mxPoint x="1490" y="827.5" as="targetPoint" />
          </mxGeometry>
        </mxCell>
        <mxCell id="tidbYzzNBCGmN1ZPOfvm-272" value="Thread #3" style="rounded=0;whiteSpace=wrap;html=1;" parent="1" vertex="1">
          <mxGeometry x="1635" y="800" width="80" height="40" as="geometry" />
        </mxCell>
        <mxCell id="9" value="&lt;p style=&quot;margin:0px;margin-top:4px;text-align:center;&quot;&gt;&lt;i&gt;a_star_t&lt;/i&gt;&lt;br&gt;&lt;b&gt;struct&lt;/b&gt;&lt;/p&gt;&lt;hr size=&quot;1&quot;&gt;&lt;p style=&quot;margin:0px;margin-left:4px;&quot;&gt;+ state_allocator_t*: state_allocator&lt;br&gt;+ node_allocator_t*: node_allocator&lt;/p&gt;&lt;p style=&quot;margin:0px;margin-left:4px;&quot;&gt;+ a_start_node_t*: solution&lt;/p&gt;&lt;p style=&quot;margin:0px;margin-left:4px;&quot;&gt;+ state_t*: goal_state&lt;/p&gt;&lt;hr size=&quot;1&quot;&gt;&lt;p style=&quot;margin:0px;margin-left:4px;&quot;&gt;+ goal_function: goal_func&lt;br&gt;+ visit_function: visit_func&lt;/p&gt;&lt;p style=&quot;border-color: var(--border-color); margin: 0px 0px 0px 4px;&quot;&gt;+ heuristic_function: h_func&lt;/p&gt;&lt;p style=&quot;border-color: var(--border-color); margin: 0px 0px 0px 4px;&quot;&gt;+ distance_function: d_func&lt;/p&gt;&lt;p style=&quot;border-color: var(--border-color); margin: 0px 0px 0px 4px;&quot;&gt;&lt;br&gt;&lt;/p&gt;" style="verticalAlign=top;align=left;overflow=fill;fontSize=12;fontFamily=Helvetica;html=1;whiteSpace=wrap;" parent="1" vertex="1">
          <mxGeometry x="1920" y="-200" width="240" height="180" as="geometry" />
        </mxCell>
        <mxCell id="12" style="edgeStyle=orthogonalEdgeStyle;curved=1;html=1;entryX=0;entryY=0.5;entryDx=0;entryDy=0;endArrow=none;endFill=0;startArrow=classic;startFill=1;" parent="1" source="10" target="9" edge="1">
          <mxGeometry relative="1" as="geometry" />
        </mxCell>
        <mxCell id="10" value="&lt;p style=&quot;margin:0px;margin-top:4px;text-align:center;&quot;&gt;&lt;i&gt;a_star_sequential_t&lt;/i&gt;&lt;br&gt;&lt;b&gt;struct&lt;/b&gt;&lt;/p&gt;&lt;hr size=&quot;1&quot;&gt;&lt;p style=&quot;margin:0px;margin-left:4px;&quot;&gt;+ a_start_t*: common&lt;br&gt;+ min_heap_t*: open_set&lt;/p&gt;&lt;p style=&quot;border-color: var(--border-color); margin: 0px 0px 0px 4px;&quot;&gt;&lt;br&gt;&lt;/p&gt;" style="verticalAlign=top;align=left;overflow=fill;fontSize=12;fontFamily=Helvetica;html=1;whiteSpace=wrap;" parent="1" vertex="1">
          <mxGeometry x="1560" y="-280" width="240" height="80" as="geometry" />
        </mxCell>
        <mxCell id="14" style="edgeStyle=orthogonalEdgeStyle;curved=1;html=1;entryX=0;entryY=0.5;entryDx=0;entryDy=0;startArrow=block;startFill=1;endArrow=none;endFill=0;" parent="1" source="13" target="9" edge="1">
          <mxGeometry relative="1" as="geometry" />
        </mxCell>
        <mxCell id="13" value="&lt;p style=&quot;margin:0px;margin-top:4px;text-align:center;&quot;&gt;&lt;i&gt;a_star_parallel_t&lt;/i&gt;&lt;br&gt;&lt;b&gt;struct&lt;/b&gt;&lt;/p&gt;&lt;hr size=&quot;1&quot;&gt;&lt;p style=&quot;margin:0px;margin-left:4px;&quot;&gt;+ a_star_t*: common&lt;/p&gt;&lt;p style=&quot;margin:0px;margin-left:4px;&quot;&gt;+ a_star_scheduler_t: scheduler&lt;br&gt;+ channel_t*: channel&lt;/p&gt;&lt;p style=&quot;margin:0px;margin-left:4px;&quot;&gt;&lt;span style=&quot;background-color: initial;&quot;&gt;--- outros&lt;/span&gt;&lt;br&gt;&lt;/p&gt;&lt;div style=&quot;color: rgb(31, 35, 40); background-color: rgb(255, 255, 255); font-family: Consolas, &amp;quot;Courier New&amp;quot;, monospace; font-size: 14px; line-height: 19px;&quot;&gt;&lt;div&gt;&lt;/div&gt;&lt;/div&gt;" style="verticalAlign=top;align=left;overflow=fill;fontSize=12;fontFamily=Helvetica;html=1;whiteSpace=wrap;" parent="1" vertex="1">
          <mxGeometry x="1560" y="-40" width="240" height="120" as="geometry" />
        </mxCell>
        <mxCell id="17" value="" style="edgeStyle=orthogonalEdgeStyle;rounded=0;orthogonalLoop=1;jettySize=auto;html=1;entryX=0;entryY=0.5;entryDx=0;entryDy=0;endArrow=none;endFill=0;" parent="1" source="tidbYzzNBCGmN1ZPOfvm-20" target="16" edge="1">
          <mxGeometry relative="1" as="geometry">
            <mxPoint x="-130" y="707.54" as="sourcePoint" />
            <mxPoint x="180" y="807.5" as="targetPoint" />
            <Array as="points">
              <mxPoint x="-130" y="707.5" />
              <mxPoint x="-130" y="707.5" />
            </Array>
          </mxGeometry>
        </mxCell>
        <mxCell id="16" value="explore node / generate new states" style="rounded=0;whiteSpace=wrap;html=1;" parent="1" vertex="1">
          <mxGeometry x="-120" y="697.5" width="200" height="20" as="geometry" />
        </mxCell>
        <mxCell id="21" value="" style="edgeStyle=orthogonalEdgeStyle;rounded=0;orthogonalLoop=1;jettySize=auto;html=1;entryX=0;entryY=0.5;entryDx=0;entryDy=0;endArrow=none;endFill=0;" parent="1" source="tidbYzzNBCGmN1ZPOfvm-21" target="20" edge="1">
          <mxGeometry relative="1" as="geometry">
            <mxPoint x="-130" y="747.5" as="sourcePoint" />
            <mxPoint x="180" y="807.4999999999995" as="targetPoint" />
            <Array as="points">
              <mxPoint x="-130" y="747.5" />
              <mxPoint x="-130" y="747.5" />
            </Array>
          </mxGeometry>
        </mxCell>
        <mxCell id="20" value="explore node / generate new states" style="rounded=0;whiteSpace=wrap;html=1;" parent="1" vertex="1">
          <mxGeometry x="-120" y="737.5" width="200" height="20" as="geometry" />
        </mxCell>
        <mxCell id="23" value="" style="edgeStyle=orthogonalEdgeStyle;rounded=0;orthogonalLoop=1;jettySize=auto;html=1;entryX=0;entryY=0.5;entryDx=0;entryDy=0;endArrow=none;" parent="1" source="tidbYzzNBCGmN1ZPOfvm-22" target="22" edge="1">
          <mxGeometry relative="1" as="geometry">
            <mxPoint x="-130" y="787.4999999999995" as="sourcePoint" />
            <mxPoint x="180" y="807.4999999999995" as="targetPoint" />
            <Array as="points">
              <mxPoint x="-130" y="787.5" />
              <mxPoint x="-130" y="787.5" />
            </Array>
          </mxGeometry>
        </mxCell>
        <mxCell id="22" value="explore node / generate new states" style="rounded=0;whiteSpace=wrap;html=1;" parent="1" vertex="1">
          <mxGeometry x="-120" y="777.5" width="200" height="20" as="geometry" />
        </mxCell>
        <mxCell id="26" value="" style="edgeStyle=orthogonalEdgeStyle;rounded=0;orthogonalLoop=1;jettySize=auto;html=1;entryX=0;entryY=0.5;entryDx=0;entryDy=0;endArrow=none;" parent="1" source="tidbYzzNBCGmN1ZPOfvm-23" target="24" edge="1">
          <mxGeometry relative="1" as="geometry">
            <mxPoint x="-130" y="907.4999999999995" as="sourcePoint" />
            <mxPoint x="180" y="807.4999999999995" as="targetPoint" />
            <Array as="points">
              <mxPoint x="-20" y="907.5" />
              <mxPoint x="-20" y="907.5" />
            </Array>
          </mxGeometry>
        </mxCell>
        <mxCell id="24" value="explore node / generate new states" style="rounded=0;whiteSpace=wrap;html=1;" parent="1" vertex="1">
          <mxGeometry x="-120" y="897.5" width="200" height="20" as="geometry" />
        </mxCell>
        <mxCell id="28" value="" style="endArrow=classic;html=1;rounded=0;entryX=0;entryY=0.5;entryDx=0;entryDy=0;exitX=1;exitY=0.5;exitDx=0;exitDy=0;edgeStyle=orthogonalEdgeStyle;startArrow=none;" parent="1" source="31" target="tidbYzzNBCGmN1ZPOfvm-21" edge="1">
          <mxGeometry width="50" height="50" relative="1" as="geometry">
            <mxPoint x="470" y="717.5" as="sourcePoint" />
            <mxPoint x="-220" y="717.5" as="targetPoint" />
            <Array as="points">
              <mxPoint x="-280" y="577.5" />
              <mxPoint x="-280" y="747.5" />
            </Array>
          </mxGeometry>
        </mxCell>
        <mxCell id="29" value="" style="endArrow=classic;html=1;rounded=0;entryX=0;entryY=0.5;entryDx=0;entryDy=0;exitX=1;exitY=0.5;exitDx=0;exitDy=0;edgeStyle=orthogonalEdgeStyle;" parent="1" source="tidbYzzNBCGmN1ZPOfvm-52" target="tidbYzzNBCGmN1ZPOfvm-22" edge="1">
          <mxGeometry width="50" height="50" relative="1" as="geometry">
            <mxPoint x="470" y="757.5" as="sourcePoint" />
            <mxPoint x="-220" y="757.5" as="targetPoint" />
            <Array as="points">
              <mxPoint x="530" y="787.5" />
              <mxPoint x="530" y="587.5" />
              <mxPoint x="-270" y="587.5" />
              <mxPoint x="-270" y="787.5" />
            </Array>
          </mxGeometry>
        </mxCell>
        <mxCell id="30" value="" style="endArrow=classic;html=1;rounded=0;entryX=0;entryY=0.5;entryDx=0;entryDy=0;exitX=1;exitY=0.5;exitDx=0;exitDy=0;edgeStyle=orthogonalEdgeStyle;" parent="1" source="tidbYzzNBCGmN1ZPOfvm-70" target="tidbYzzNBCGmN1ZPOfvm-23" edge="1">
          <mxGeometry width="50" height="50" relative="1" as="geometry">
            <mxPoint x="470" y="797.5" as="sourcePoint" />
            <mxPoint x="-220" y="797.5" as="targetPoint" />
            <Array as="points">
              <mxPoint x="520" y="907.5" />
              <mxPoint x="520" y="597.5" />
              <mxPoint x="-260" y="597.5" />
              <mxPoint x="-260" y="907.5" />
            </Array>
          </mxGeometry>
        </mxCell>
        <mxCell id="32" value="" style="endArrow=none;html=1;rounded=0;entryX=0;entryY=0.5;entryDx=0;entryDy=0;exitX=1;exitY=0.5;exitDx=0;exitDy=0;edgeStyle=orthogonalEdgeStyle;" parent="1" source="tidbYzzNBCGmN1ZPOfvm-34" target="31" edge="1">
          <mxGeometry width="50" height="50" relative="1" as="geometry">
            <mxPoint x="460" y="747.5" as="sourcePoint" />
            <mxPoint x="-230" y="747.5" as="targetPoint" />
            <Array as="points">
              <mxPoint x="540" y="747.5" />
              <mxPoint x="540" y="577.5" />
            </Array>
          </mxGeometry>
        </mxCell>
        <mxCell id="31" value="each thread read queue and &lt;br&gt;process recieved states" style="rounded=0;whiteSpace=wrap;html=1;" parent="1" vertex="1">
          <mxGeometry x="20" y="557.5" width="200" height="50" as="geometry" />
        </mxCell>
        <mxCell id="38" style="edgeStyle=orthogonalEdgeStyle;html=1;entryX=0.5;entryY=0;entryDx=0;entryDy=0;startArrow=none;startFill=0;endArrow=classic;endFill=1;" parent="1" source="34" target="35" edge="1">
          <mxGeometry relative="1" as="geometry" />
        </mxCell>
        <mxCell id="34" value="generate node" style="rounded=0;whiteSpace=wrap;html=1;fontSize=11;strokeWidth=1;" parent="1" vertex="1">
          <mxGeometry x="1240" y="682.5" width="120" height="40" as="geometry" />
        </mxCell>
        <mxCell id="39" style="edgeStyle=orthogonalEdgeStyle;html=1;entryX=0.5;entryY=0;entryDx=0;entryDy=0;startArrow=none;startFill=0;endArrow=classic;endFill=1;" parent="1" source="35" target="tidbYzzNBCGmN1ZPOfvm-170" edge="1">
          <mxGeometry relative="1" as="geometry" />
        </mxCell>
        <mxCell id="35" value="calculate cost" style="rounded=0;whiteSpace=wrap;html=1;fontSize=11;strokeWidth=1;" parent="1" vertex="1">
          <mxGeometry x="1240" y="797.5" width="120" height="40" as="geometry" />
        </mxCell>
        <mxCell id="42" value="list of new states" style="html=1;verticalAlign=bottom;endArrow=block;edgeStyle=elbowEdgeStyle;elbow=vertical;curved=0;rounded=0;" parent="1" source="40" target="aM9ryv3xv72pqoxQDRHE-2" edge="1">
          <mxGeometry relative="1" as="geometry">
            <mxPoint x="2800" y="-407.74" as="sourcePoint" />
            <Array as="points">
              <mxPoint x="2755" y="-337.74" />
              <mxPoint x="2725" y="-407.74" />
            </Array>
            <mxPoint x="2630" y="-407.74" as="targetPoint" />
          </mxGeometry>
        </mxCell>
        <mxCell id="78" value="distance_func" style="html=1;verticalAlign=bottom;endArrow=block;edgeStyle=elbowEdgeStyle;elbow=vertical;curved=0;rounded=0;" parent="1" source="74" target="76" edge="1">
          <mxGeometry relative="1" as="geometry">
            <mxPoint x="2721" y="-637" as="sourcePoint" />
            <Array as="points">
              <mxPoint x="2706" y="-647" />
            </Array>
          </mxGeometry>
        </mxCell>
        <mxCell id="79" value="distance from previous state" style="html=1;verticalAlign=bottom;endArrow=block;edgeStyle=elbowEdgeStyle;elbow=vertical;curved=0;rounded=0;" parent="1" source="76" target="74" edge="1">
          <mxGeometry relative="1" as="geometry">
            <mxPoint x="2701" y="-607" as="sourcePoint" />
            <Array as="points">
              <mxPoint x="2716" y="-607" />
            </Array>
            <mxPoint x="2626" y="-607" as="targetPoint" />
          </mxGeometry>
        </mxCell>
        <mxCell id="80" value="heuristic value to goal" style="html=1;verticalAlign=bottom;endArrow=block;edgeStyle=elbowEdgeStyle;elbow=vertical;curved=0;rounded=0;" parent="1" source="77" target="74" edge="1">
          <mxGeometry relative="1" as="geometry">
            <mxPoint x="2801" y="-597" as="sourcePoint" />
            <Array as="points">
              <mxPoint x="2756" y="-527" />
              <mxPoint x="2726" y="-597" />
            </Array>
            <mxPoint x="2631" y="-597" as="targetPoint" />
          </mxGeometry>
        </mxCell>
        <mxCell id="83" value="visit_func" style="html=1;verticalAlign=bottom;endArrow=block;edgeStyle=elbowEdgeStyle;elbow=vertical;curved=0;rounded=0;" parent="1" target="91" edge="1">
          <mxGeometry relative="1" as="geometry">
            <mxPoint x="2250.0744680851067" y="-561.74" as="sourcePoint" />
            <Array as="points">
              <mxPoint x="2330" y="-561.74" />
              <mxPoint x="2350" y="-611.74" />
            </Array>
            <mxPoint x="2435" y="-611.74" as="targetPoint" />
          </mxGeometry>
        </mxCell>
        <mxCell id="84" value="a_star" style="shape=umlLifeline;perimeter=lifelinePerimeter;whiteSpace=wrap;html=1;container=0;dropTarget=0;collapsible=0;recursiveResize=0;outlineConnect=0;portConstraint=eastwest;newEdgeStyle={&quot;edgeStyle&quot;:&quot;elbowEdgeStyle&quot;,&quot;elbow&quot;:&quot;vertical&quot;,&quot;curved&quot;:0,&quot;rounded&quot;:0};" parent="1" vertex="1">
          <mxGeometry x="2200" y="-740" width="100" height="440" as="geometry" />
        </mxCell>
        <mxCell id="85" value="" style="html=1;points=[];perimeter=orthogonalPerimeter;outlineConnect=0;targetShapes=umlLifeline;portConstraint=eastwest;newEdgeStyle={&quot;edgeStyle&quot;:&quot;elbowEdgeStyle&quot;,&quot;elbow&quot;:&quot;vertical&quot;,&quot;curved&quot;:0,&quot;rounded&quot;:0};" parent="84" vertex="1">
          <mxGeometry x="45" y="86.25999999999999" width="10" height="140" as="geometry" />
        </mxCell>
        <mxCell id="86" value="node from &lt;br&gt;min_heap&lt;br&gt;" style="html=1;verticalAlign=bottom;startArrow=oval;endArrow=block;startSize=8;edgeStyle=elbowEdgeStyle;elbow=vertical;curved=0;rounded=0;" parent="84" target="85" edge="1">
          <mxGeometry relative="1" as="geometry">
            <mxPoint x="-15" y="86.25999999999999" as="sourcePoint" />
          </mxGeometry>
        </mxCell>
        <mxCell id="89" value="problem" style="shape=umlLifeline;perimeter=lifelinePerimeter;whiteSpace=wrap;html=1;container=0;dropTarget=0;collapsible=0;recursiveResize=0;outlineConnect=0;portConstraint=eastwest;newEdgeStyle={&quot;edgeStyle&quot;:&quot;elbowEdgeStyle&quot;,&quot;elbow&quot;:&quot;vertical&quot;,&quot;curved&quot;:0,&quot;rounded&quot;:0};" parent="1" vertex="1">
          <mxGeometry x="2380" y="-740" width="100" height="440" as="geometry" />
        </mxCell>
        <mxCell id="90" value="" style="html=1;points=[];perimeter=orthogonalPerimeter;outlineConnect=0;targetShapes=umlLifeline;portConstraint=eastwest;newEdgeStyle={&quot;edgeStyle&quot;:&quot;elbowEdgeStyle&quot;,&quot;elbow&quot;:&quot;vertical&quot;,&quot;curved&quot;:0,&quot;rounded&quot;:0};" parent="89" vertex="1">
          <mxGeometry x="45" y="96.25999999999999" width="10" height="40" as="geometry" />
        </mxCell>
        <mxCell id="91" value="" style="html=1;points=[];perimeter=orthogonalPerimeter;outlineConnect=0;targetShapes=umlLifeline;portConstraint=eastwest;newEdgeStyle={&quot;edgeStyle&quot;:&quot;elbowEdgeStyle&quot;,&quot;elbow&quot;:&quot;vertical&quot;,&quot;curved&quot;:0,&quot;rounded&quot;:0};" parent="89" vertex="1">
          <mxGeometry x="45" y="178.26" width="10" height="40" as="geometry" />
        </mxCell>
        <mxCell id="94" value="goal_func" style="html=1;verticalAlign=bottom;endArrow=block;edgeStyle=elbowEdgeStyle;elbow=vertical;curved=0;rounded=0;" parent="1" source="85" target="90" edge="1">
          <mxGeometry relative="1" as="geometry">
            <mxPoint x="2355" y="-633.74" as="sourcePoint" />
            <Array as="points">
              <mxPoint x="2340" y="-643.74" />
            </Array>
          </mxGeometry>
        </mxCell>
        <mxCell id="95" value="true/false" style="html=1;verticalAlign=bottom;endArrow=block;edgeStyle=elbowEdgeStyle;elbow=vertical;curved=0;rounded=0;" parent="1" source="90" target="85" edge="1">
          <mxGeometry relative="1" as="geometry">
            <mxPoint x="2335" y="-603.74" as="sourcePoint" />
            <Array as="points">
              <mxPoint x="2350" y="-603.74" />
            </Array>
            <mxPoint x="2260" y="-603.74" as="targetPoint" />
          </mxGeometry>
        </mxCell>
        <mxCell id="96" value="list of new states" style="html=1;verticalAlign=bottom;endArrow=block;edgeStyle=elbowEdgeStyle;elbow=vertical;curved=0;rounded=0;" parent="1" source="91" target="85" edge="1">
          <mxGeometry relative="1" as="geometry">
            <mxPoint x="2435" y="-593.74" as="sourcePoint" />
            <Array as="points">
              <mxPoint x="2390" y="-523.74" />
              <mxPoint x="2360" y="-593.74" />
            </Array>
            <mxPoint x="2265" y="-593.74" as="targetPoint" />
          </mxGeometry>
        </mxCell>
        <mxCell id="82" value="heuristic_func" style="html=1;verticalAlign=bottom;endArrow=block;edgeStyle=elbowEdgeStyle;elbow=vertical;curved=0;rounded=0;" parent="1" target="93" edge="1">
          <mxGeometry relative="1" as="geometry">
            <mxPoint x="2250.0744680851067" y="-421.74000000000024" as="sourcePoint" />
            <Array as="points">
              <mxPoint x="2330" y="-421.74" />
              <mxPoint x="2350" y="-471.74" />
            </Array>
            <mxPoint x="2435" y="-471.74" as="targetPoint" />
          </mxGeometry>
        </mxCell>
        <mxCell id="87" value="" style="html=1;points=[];perimeter=orthogonalPerimeter;outlineConnect=0;targetShapes=umlLifeline;portConstraint=eastwest;newEdgeStyle={&quot;edgeStyle&quot;:&quot;elbowEdgeStyle&quot;,&quot;elbow&quot;:&quot;vertical&quot;,&quot;curved&quot;:0,&quot;rounded&quot;:0};" parent="1" vertex="1">
          <mxGeometry x="2245" y="-513.74" width="10" height="140" as="geometry" />
        </mxCell>
        <mxCell id="92" value="" style="html=1;points=[];perimeter=orthogonalPerimeter;outlineConnect=0;targetShapes=umlLifeline;portConstraint=eastwest;newEdgeStyle={&quot;edgeStyle&quot;:&quot;elbowEdgeStyle&quot;,&quot;elbow&quot;:&quot;vertical&quot;,&quot;curved&quot;:0,&quot;rounded&quot;:0};" parent="1" vertex="1">
          <mxGeometry x="2425" y="-503.74" width="10" height="40" as="geometry" />
        </mxCell>
        <mxCell id="93" value="" style="html=1;points=[];perimeter=orthogonalPerimeter;outlineConnect=0;targetShapes=umlLifeline;portConstraint=eastwest;newEdgeStyle={&quot;edgeStyle&quot;:&quot;elbowEdgeStyle&quot;,&quot;elbow&quot;:&quot;vertical&quot;,&quot;curved&quot;:0,&quot;rounded&quot;:0};" parent="1" vertex="1">
          <mxGeometry x="2425" y="-421.74" width="10" height="40" as="geometry" />
        </mxCell>
        <mxCell id="97" value="distance_func" style="html=1;verticalAlign=bottom;endArrow=block;edgeStyle=elbowEdgeStyle;elbow=vertical;curved=0;rounded=0;" parent="1" source="87" target="92" edge="1">
          <mxGeometry relative="1" as="geometry">
            <mxPoint x="2355" y="-493.74" as="sourcePoint" />
            <Array as="points">
              <mxPoint x="2340" y="-503.74" />
            </Array>
          </mxGeometry>
        </mxCell>
        <mxCell id="98" value="distance from previous state" style="html=1;verticalAlign=bottom;endArrow=block;edgeStyle=elbowEdgeStyle;elbow=vertical;curved=0;rounded=0;" parent="1" source="92" target="87" edge="1">
          <mxGeometry relative="1" as="geometry">
            <mxPoint x="2335" y="-463.74" as="sourcePoint" />
            <Array as="points">
              <mxPoint x="2350" y="-463.74" />
            </Array>
            <mxPoint x="2260" y="-463.74" as="targetPoint" />
          </mxGeometry>
        </mxCell>
        <mxCell id="99" value="heuristic value to goal" style="html=1;verticalAlign=bottom;endArrow=block;edgeStyle=elbowEdgeStyle;elbow=vertical;curved=0;rounded=0;" parent="1" source="93" target="87" edge="1">
          <mxGeometry relative="1" as="geometry">
            <mxPoint x="2435" y="-453.74" as="sourcePoint" />
            <Array as="points">
              <mxPoint x="2390" y="-383.74" />
              <mxPoint x="2360" y="-453.74" />
            </Array>
            <mxPoint x="2265" y="-453.74" as="targetPoint" />
          </mxGeometry>
        </mxCell>
        <mxCell id="bHXt7-z5qljUw-2HrjX0-99" value="states allocator (global)" style="rounded=0;whiteSpace=wrap;html=1;verticalAlign=bottom;spacing=0;spacingBottom=-24;align=left;" vertex="1" parent="1">
          <mxGeometry x="1960" y="920" width="470" height="300" as="geometry" />
        </mxCell>
        <mxCell id="bHXt7-z5qljUw-2HrjX0-100" value="states hashtable (global)" style="rounded=0;whiteSpace=wrap;html=1;verticalAlign=top;" vertex="1" parent="1">
          <mxGeometry x="1980" y="940" width="220" height="260" as="geometry" />
        </mxCell>
        <mxCell id="bHXt7-z5qljUw-2HrjX0-101" value="0" style="rounded=0;whiteSpace=wrap;html=1;" vertex="1" parent="1">
          <mxGeometry x="2000" y="980" width="40" height="40" as="geometry" />
        </mxCell>
        <mxCell id="bHXt7-z5qljUw-2HrjX0-102" value="1" style="rounded=0;whiteSpace=wrap;html=1;" vertex="1" parent="1">
          <mxGeometry x="2000" y="1030" width="40" height="40" as="geometry" />
        </mxCell>
        <mxCell id="bHXt7-z5qljUw-2HrjX0-103" value="nth idx" style="rounded=0;whiteSpace=wrap;html=1;" vertex="1" parent="1">
          <mxGeometry x="2000" y="1140" width="40" height="40" as="geometry" />
        </mxCell>
        <mxCell id="bHXt7-z5qljUw-2HrjX0-104" value="pointer to state_data" style="rounded=0;whiteSpace=wrap;html=1;" vertex="1" parent="1">
          <mxGeometry x="2050" y="980" width="70" height="40" as="geometry" />
        </mxCell>
        <mxCell id="bHXt7-z5qljUw-2HrjX0-105" value="pointer to state_data" style="rounded=0;whiteSpace=wrap;html=1;" vertex="1" parent="1">
          <mxGeometry x="2050" y="1030" width="70" height="40" as="geometry" />
        </mxCell>
        <mxCell id="bHXt7-z5qljUw-2HrjX0-106" value="pointer to state_data" style="rounded=0;whiteSpace=wrap;html=1;" vertex="1" parent="1">
          <mxGeometry x="2050" y="1140" width="70" height="40" as="geometry" />
        </mxCell>
        <mxCell id="bHXt7-z5qljUw-2HrjX0-107" value="&lt;b&gt;.&lt;br&gt;&lt;/b&gt;&lt;div&gt;&lt;b&gt;.&lt;/b&gt;&lt;/div&gt;&lt;div&gt;&lt;b&gt;.&lt;br&gt;&lt;/b&gt;&lt;/div&gt;" style="text;html=1;strokeColor=none;fillColor=none;align=center;verticalAlign=middle;whiteSpace=wrap;rounded=0;" vertex="1" parent="1">
          <mxGeometry x="2000" y="1080" width="40" height="60" as="geometry" />
        </mxCell>
        <mxCell id="bHXt7-z5qljUw-2HrjX0-108" value="&lt;b&gt;.&lt;br&gt;&lt;/b&gt;&lt;div&gt;&lt;b&gt;.&lt;/b&gt;&lt;/div&gt;&lt;div&gt;&lt;b&gt;.&lt;br&gt;&lt;/b&gt;&lt;/div&gt;" style="text;html=1;strokeColor=none;fillColor=none;align=center;verticalAlign=middle;whiteSpace=wrap;rounded=0;" vertex="1" parent="1">
          <mxGeometry x="2050" y="1080" width="70" height="60" as="geometry" />
        </mxCell>
        <mxCell id="bHXt7-z5qljUw-2HrjX0-109" value=". . . . . . . " style="text;html=1;strokeColor=none;fillColor=none;align=center;verticalAlign=middle;whiteSpace=wrap;rounded=0;fontStyle=1" vertex="1" parent="1">
          <mxGeometry x="2120" y="980" width="70" height="40" as="geometry" />
        </mxCell>
        <mxCell id="bHXt7-z5qljUw-2HrjX0-110" value="&lt;b&gt;. . . . . . . &lt;/b&gt;" style="text;html=1;strokeColor=none;fillColor=none;align=center;verticalAlign=middle;whiteSpace=wrap;rounded=0;" vertex="1" parent="1">
          <mxGeometry x="2120" y="1030" width="70" height="40" as="geometry" />
        </mxCell>
        <mxCell id="bHXt7-z5qljUw-2HrjX0-111" value="&lt;b&gt;. . . . . . . &lt;/b&gt;" style="text;html=1;strokeColor=none;fillColor=none;align=center;verticalAlign=middle;whiteSpace=wrap;rounded=0;" vertex="1" parent="1">
          <mxGeometry x="2120" y="1140" width="70" height="40" as="geometry" />
        </mxCell>
        <mxCell id="bHXt7-z5qljUw-2HrjX0-112" value="memory allocator" style="rounded=0;whiteSpace=wrap;html=1;verticalAlign=top;" vertex="1" parent="1">
          <mxGeometry x="2220" y="940" width="190" height="260" as="geometry" />
        </mxCell>
        <mxCell id="bHXt7-z5qljUw-2HrjX0-113" value="state_data" style="rounded=0;whiteSpace=wrap;html=1;" vertex="1" parent="1">
          <mxGeometry x="2240" y="980" width="70" height="40" as="geometry" />
        </mxCell>
        <mxCell id="bHXt7-z5qljUw-2HrjX0-114" value="state_data" style="rounded=0;whiteSpace=wrap;html=1;" vertex="1" parent="1">
          <mxGeometry x="2320" y="980" width="70" height="40" as="geometry" />
        </mxCell>
        <mxCell id="bHXt7-z5qljUw-2HrjX0-115" value="state_data" style="rounded=0;whiteSpace=wrap;html=1;" vertex="1" parent="1">
          <mxGeometry x="2240" y="1140" width="70" height="40" as="geometry" />
        </mxCell>
        <mxCell id="bHXt7-z5qljUw-2HrjX0-116" value="&lt;b&gt;.&lt;br&gt;&lt;/b&gt;&lt;div&gt;&lt;b&gt;.&lt;/b&gt;&lt;/div&gt;&lt;div&gt;&lt;b&gt;.&lt;br&gt;&lt;/b&gt;&lt;/div&gt;" style="text;html=1;strokeColor=none;fillColor=none;align=center;verticalAlign=middle;whiteSpace=wrap;rounded=0;" vertex="1" parent="1">
          <mxGeometry x="2240" y="1080" width="40" height="60" as="geometry" />
        </mxCell>
        <mxCell id="bHXt7-z5qljUw-2HrjX0-117" value="&lt;b&gt;.&lt;br&gt;&lt;/b&gt;&lt;div&gt;&lt;b&gt;.&lt;/b&gt;&lt;/div&gt;&lt;div&gt;&lt;b&gt;.&lt;br&gt;&lt;/b&gt;&lt;/div&gt;" style="text;html=1;strokeColor=none;fillColor=none;align=center;verticalAlign=middle;whiteSpace=wrap;rounded=0;rotation=-45;" vertex="1" parent="1">
          <mxGeometry x="2300" y="1070" width="70" height="60" as="geometry" />
        </mxCell>
        <mxCell id="bHXt7-z5qljUw-2HrjX0-118" value="&lt;b&gt;. . . . . . . &lt;/b&gt;" style="text;html=1;strokeColor=none;fillColor=none;align=center;verticalAlign=middle;whiteSpace=wrap;rounded=0;" vertex="1" parent="1">
          <mxGeometry x="2320" y="1030" width="70" height="40" as="geometry" />
        </mxCell>
        <mxCell id="bHXt7-z5qljUw-2HrjX0-119" value="state_data" style="rounded=0;whiteSpace=wrap;html=1;" vertex="1" parent="1">
          <mxGeometry x="2240" y="1030" width="70" height="40" as="geometry" />
        </mxCell>
        <mxCell id="bHXt7-z5qljUw-2HrjX0-120" value="state_data" style="rounded=0;whiteSpace=wrap;html=1;" vertex="1" parent="1">
          <mxGeometry x="2320" y="1140" width="70" height="40" as="geometry" />
        </mxCell>
        <mxCell id="bHXt7-z5qljUw-2HrjX0-121" value="a_star sequential (call visit function)" style="rounded=0;whiteSpace=wrap;html=1;" vertex="1" parent="1">
          <mxGeometry x="1995" y="1306" width="400" height="40" as="geometry" />
        </mxCell>
        <mxCell id="bHXt7-z5qljUw-2HrjX0-125" value="state_allocator_new" style="text;html=1;strokeColor=none;fillColor=none;align=center;verticalAlign=middle;whiteSpace=wrap;rounded=0;" vertex="1" parent="1">
          <mxGeometry x="2220" y="1237.5" width="140" height="40" as="geometry" />
        </mxCell>
        <mxCell id="bHXt7-z5qljUw-2HrjX0-126" value="" style="rounded=0;orthogonalLoop=1;jettySize=auto;html=1;entryX=0.5;entryY=0;entryDx=0;entryDy=0;strokeColor=default;startArrow=classic;startFill=1;shape=flexArrow;exitX=0.5;exitY=1;exitDx=0;exitDy=0;" edge="1" source="bHXt7-z5qljUw-2HrjX0-99" target="bHXt7-z5qljUw-2HrjX0-121" parent="1">
          <mxGeometry relative="1" as="geometry">
            <mxPoint x="2210" y="1217.5" as="sourcePoint" />
            <mxPoint x="2195" y="1302.5" as="targetPoint" />
          </mxGeometry>
        </mxCell>
        <mxCell id="bHXt7-z5qljUw-2HrjX0-128" value="nodes allocator (global)" style="rounded=0;whiteSpace=wrap;html=1;verticalAlign=bottom;spacing=0;align=left;spacingTop=0;spacingBottom=-24;" vertex="1" parent="1">
          <mxGeometry x="1440" y="920" width="470" height="300" as="geometry" />
        </mxCell>
        <mxCell id="bHXt7-z5qljUw-2HrjX0-129" value="node hashtable (global)" style="rounded=0;whiteSpace=wrap;html=1;verticalAlign=top;" vertex="1" parent="1">
          <mxGeometry x="1460" y="940" width="220" height="260" as="geometry" />
        </mxCell>
        <mxCell id="bHXt7-z5qljUw-2HrjX0-130" value="0" style="rounded=0;whiteSpace=wrap;html=1;" vertex="1" parent="1">
          <mxGeometry x="1480" y="980" width="40" height="40" as="geometry" />
        </mxCell>
        <mxCell id="bHXt7-z5qljUw-2HrjX0-131" value="1" style="rounded=0;whiteSpace=wrap;html=1;" vertex="1" parent="1">
          <mxGeometry x="1480" y="1030" width="40" height="40" as="geometry" />
        </mxCell>
        <mxCell id="bHXt7-z5qljUw-2HrjX0-132" value="nth idx" style="rounded=0;whiteSpace=wrap;html=1;" vertex="1" parent="1">
          <mxGeometry x="1480" y="1140" width="40" height="40" as="geometry" />
        </mxCell>
        <mxCell id="bHXt7-z5qljUw-2HrjX0-133" value="pointer to node_data" style="rounded=0;whiteSpace=wrap;html=1;" vertex="1" parent="1">
          <mxGeometry x="1530" y="980" width="70" height="40" as="geometry" />
        </mxCell>
        <mxCell id="bHXt7-z5qljUw-2HrjX0-134" value="pointer to node_data" style="rounded=0;whiteSpace=wrap;html=1;" vertex="1" parent="1">
          <mxGeometry x="1530" y="1030" width="70" height="40" as="geometry" />
        </mxCell>
        <mxCell id="bHXt7-z5qljUw-2HrjX0-135" value="pointer to node_data" style="rounded=0;whiteSpace=wrap;html=1;" vertex="1" parent="1">
          <mxGeometry x="1530" y="1140" width="70" height="40" as="geometry" />
        </mxCell>
        <mxCell id="bHXt7-z5qljUw-2HrjX0-136" value="&lt;b&gt;.&lt;br&gt;&lt;/b&gt;&lt;div&gt;&lt;b&gt;.&lt;/b&gt;&lt;/div&gt;&lt;div&gt;&lt;b&gt;.&lt;br&gt;&lt;/b&gt;&lt;/div&gt;" style="text;html=1;strokeColor=none;fillColor=none;align=center;verticalAlign=middle;whiteSpace=wrap;rounded=0;" vertex="1" parent="1">
          <mxGeometry x="1480" y="1080" width="40" height="60" as="geometry" />
        </mxCell>
        <mxCell id="bHXt7-z5qljUw-2HrjX0-137" value="&lt;b&gt;.&lt;br&gt;&lt;/b&gt;&lt;div&gt;&lt;b&gt;.&lt;/b&gt;&lt;/div&gt;&lt;div&gt;&lt;b&gt;.&lt;br&gt;&lt;/b&gt;&lt;/div&gt;" style="text;html=1;strokeColor=none;fillColor=none;align=center;verticalAlign=middle;whiteSpace=wrap;rounded=0;" vertex="1" parent="1">
          <mxGeometry x="1530" y="1080" width="70" height="60" as="geometry" />
        </mxCell>
        <mxCell id="bHXt7-z5qljUw-2HrjX0-138" value=". . . . . . . " style="text;html=1;strokeColor=none;fillColor=none;align=center;verticalAlign=middle;whiteSpace=wrap;rounded=0;fontStyle=1" vertex="1" parent="1">
          <mxGeometry x="1600" y="980" width="70" height="40" as="geometry" />
        </mxCell>
        <mxCell id="bHXt7-z5qljUw-2HrjX0-139" value="&lt;b&gt;. . . . . . . &lt;/b&gt;" style="text;html=1;strokeColor=none;fillColor=none;align=center;verticalAlign=middle;whiteSpace=wrap;rounded=0;" vertex="1" parent="1">
          <mxGeometry x="1600" y="1030" width="70" height="40" as="geometry" />
        </mxCell>
        <mxCell id="bHXt7-z5qljUw-2HrjX0-140" value="&lt;b&gt;. . . . . . . &lt;/b&gt;" style="text;html=1;strokeColor=none;fillColor=none;align=center;verticalAlign=middle;whiteSpace=wrap;rounded=0;" vertex="1" parent="1">
          <mxGeometry x="1600" y="1140" width="70" height="40" as="geometry" />
        </mxCell>
        <mxCell id="bHXt7-z5qljUw-2HrjX0-141" value="memory allocator" style="rounded=0;whiteSpace=wrap;html=1;verticalAlign=top;" vertex="1" parent="1">
          <mxGeometry x="1700" y="940" width="190" height="260" as="geometry" />
        </mxCell>
        <mxCell id="bHXt7-z5qljUw-2HrjX0-142" value="node_data" style="rounded=0;whiteSpace=wrap;html=1;" vertex="1" parent="1">
          <mxGeometry x="1720" y="980" width="70" height="40" as="geometry" />
        </mxCell>
        <mxCell id="bHXt7-z5qljUw-2HrjX0-143" value="node_data" style="rounded=0;whiteSpace=wrap;html=1;" vertex="1" parent="1">
          <mxGeometry x="1800" y="980" width="70" height="40" as="geometry" />
        </mxCell>
        <mxCell id="bHXt7-z5qljUw-2HrjX0-144" value="node_data" style="rounded=0;whiteSpace=wrap;html=1;" vertex="1" parent="1">
          <mxGeometry x="1720" y="1140" width="70" height="40" as="geometry" />
        </mxCell>
        <mxCell id="bHXt7-z5qljUw-2HrjX0-145" value="&lt;b&gt;.&lt;br&gt;&lt;/b&gt;&lt;div&gt;&lt;b&gt;.&lt;/b&gt;&lt;/div&gt;&lt;div&gt;&lt;b&gt;.&lt;br&gt;&lt;/b&gt;&lt;/div&gt;" style="text;html=1;strokeColor=none;fillColor=none;align=center;verticalAlign=middle;whiteSpace=wrap;rounded=0;" vertex="1" parent="1">
          <mxGeometry x="1720" y="1080" width="40" height="60" as="geometry" />
        </mxCell>
        <mxCell id="bHXt7-z5qljUw-2HrjX0-146" value="&lt;b&gt;.&lt;br&gt;&lt;/b&gt;&lt;div&gt;&lt;b&gt;.&lt;/b&gt;&lt;/div&gt;&lt;div&gt;&lt;b&gt;.&lt;br&gt;&lt;/b&gt;&lt;/div&gt;" style="text;html=1;strokeColor=none;fillColor=none;align=center;verticalAlign=middle;whiteSpace=wrap;rounded=0;rotation=-45;" vertex="1" parent="1">
          <mxGeometry x="1780" y="1070" width="70" height="60" as="geometry" />
        </mxCell>
        <mxCell id="bHXt7-z5qljUw-2HrjX0-147" value="&lt;b&gt;. . . . . . . &lt;/b&gt;" style="text;html=1;strokeColor=none;fillColor=none;align=center;verticalAlign=middle;whiteSpace=wrap;rounded=0;" vertex="1" parent="1">
          <mxGeometry x="1800" y="1030" width="70" height="40" as="geometry" />
        </mxCell>
        <mxCell id="bHXt7-z5qljUw-2HrjX0-148" value="node_data" style="rounded=0;whiteSpace=wrap;html=1;" vertex="1" parent="1">
          <mxGeometry x="1720" y="1030" width="70" height="40" as="geometry" />
        </mxCell>
        <mxCell id="bHXt7-z5qljUw-2HrjX0-149" value="node_data" style="rounded=0;whiteSpace=wrap;html=1;" vertex="1" parent="1">
          <mxGeometry x="1800" y="1140" width="70" height="40" as="geometry" />
        </mxCell>
        <mxCell id="bHXt7-z5qljUw-2HrjX0-150" value="a_star sequential (algorithm main loop)" style="rounded=0;whiteSpace=wrap;html=1;" vertex="1" parent="1">
          <mxGeometry x="1475" y="1306" width="400" height="40" as="geometry" />
        </mxCell>
        <mxCell id="bHXt7-z5qljUw-2HrjX0-154" value="node_allocator_new / node_allocator_get" style="text;html=1;strokeColor=none;fillColor=none;align=center;verticalAlign=middle;whiteSpace=wrap;rounded=0;" vertex="1" parent="1">
          <mxGeometry x="1700" y="1237.5" width="140" height="40" as="geometry" />
        </mxCell>
        <mxCell id="bHXt7-z5qljUw-2HrjX0-155" value="" style="rounded=0;orthogonalLoop=1;jettySize=auto;html=1;entryX=0.5;entryY=-0.068;entryDx=0;entryDy=0;strokeColor=default;startArrow=classic;startFill=1;shape=flexArrow;exitX=0.5;exitY=1;exitDx=0;exitDy=0;entryPerimeter=0;" edge="1" source="bHXt7-z5qljUw-2HrjX0-128" target="bHXt7-z5qljUw-2HrjX0-150" parent="1">
          <mxGeometry relative="1" as="geometry">
            <mxPoint x="1690" y="1217.5" as="sourcePoint" />
            <mxPoint x="1675" y="1302.5" as="targetPoint" />
          </mxGeometry>
        </mxCell>
        <mxCell id="bHXt7-z5qljUw-2HrjX0-158" value="a_star parallel (worker main loop)" style="rounded=0;whiteSpace=wrap;html=1;" vertex="1" parent="1">
          <mxGeometry x="1475" y="757.5" width="400" height="40" as="geometry" />
        </mxCell>
        <mxCell id="bHXt7-z5qljUw-2HrjX0-159" value="a_star parallel (call visit function per worker)" style="rounded=0;whiteSpace=wrap;html=1;" vertex="1" parent="1">
          <mxGeometry x="1995" y="757.5" width="400" height="40" as="geometry" />
        </mxCell>
      </root>
    </mxGraphModel>
  </diagram>
</mxfile>
